<mxfile host="app.diagrams.net" agent="Mozilla/5.0 (Windows NT 10.0; Win64; x64; rv:142.0) Gecko/20100101 Firefox/142.0" version="28.1.2">
  <diagram name="Página-1" id="WQbUN-EGSe5NDCvXSSPN">
    <mxGraphModel dx="1496" dy="789" grid="1" gridSize="10" guides="1" tooltips="1" connect="1" arrows="1" fold="1" page="1" pageScale="1" pageWidth="1169" pageHeight="827" math="0" shadow="0">
      <root>
        <mxCell id="0" />
        <mxCell id="1" parent="0" />
        <mxCell id="FI0YXAV16Z5IlFgOAKjE-8" value="" style="rounded=0;whiteSpace=wrap;html=1;fillColor=none;perimeterSpacing=1;strokeColor=light-dark(#ff8000, #ededed);dashed=1;dashPattern=8 8;strokeWidth=3;" vertex="1" parent="1">
          <mxGeometry x="40" y="40" width="1090" height="560" as="geometry" />
        </mxCell>
        <mxCell id="FI0YXAV16Z5IlFgOAKjE-9" value="&lt;font style=&quot;font-size: 16px;&quot;&gt;&lt;span style=&quot;color: rgb(255, 128, 0);&quot;&gt;&lt;b&gt;AWS&lt;/b&gt;&lt;/span&gt;&lt;/font&gt;" style="text;html=1;align=center;verticalAlign=middle;whiteSpace=wrap;rounded=0;" vertex="1" parent="1">
          <mxGeometry x="39" y="10" width="40" height="30" as="geometry" />
        </mxCell>
        <mxCell id="FI0YXAV16Z5IlFgOAKjE-15" value="Region A" style="points=[[0,0],[0.25,0],[0.5,0],[0.75,0],[1,0],[1,0.25],[1,0.5],[1,0.75],[1,1],[0.75,1],[0.5,1],[0.25,1],[0,1],[0,0.75],[0,0.5],[0,0.25]];outlineConnect=0;gradientColor=none;html=1;whiteSpace=wrap;fontSize=12;fontStyle=0;container=1;pointerEvents=0;collapsible=0;recursiveResize=0;shape=mxgraph.aws4.group;grIcon=mxgraph.aws4.group_region;strokeColor=#00A4A6;fillColor=none;verticalAlign=top;align=left;spacingLeft=30;fontColor=#147EBA;dashed=1;" vertex="1" parent="1">
          <mxGeometry x="47.75" y="50" width="612.25" height="540" as="geometry" />
        </mxCell>
        <mxCell id="FI0YXAV16Z5IlFgOAKjE-17" value="Availability Zone X" style="sketch=0;outlineConnect=0;gradientColor=none;html=1;whiteSpace=wrap;fontSize=12;fontStyle=0;shape=mxgraph.aws4.group;grIcon=mxgraph.aws4.group_availability_zone;strokeColor=#545B64;fillColor=none;verticalAlign=top;align=left;spacingLeft=30;fontColor=#545B64;dashed=1;" vertex="1" parent="FI0YXAV16Z5IlFgOAKjE-15">
          <mxGeometry x="12.25" y="160" width="287.75" height="370" as="geometry" />
        </mxCell>
        <mxCell id="FI0YXAV16Z5IlFgOAKjE-19" value="Availability Zone Y" style="sketch=0;outlineConnect=0;gradientColor=none;html=1;whiteSpace=wrap;fontSize=12;fontStyle=0;shape=mxgraph.aws4.group;grIcon=mxgraph.aws4.group_availability_zone;strokeColor=#545B64;fillColor=none;verticalAlign=top;align=left;spacingLeft=30;fontColor=#545B64;dashed=1;" vertex="1" parent="FI0YXAV16Z5IlFgOAKjE-15">
          <mxGeometry x="312.25" y="160" width="287.75" height="370" as="geometry" />
        </mxCell>
        <mxCell id="FI0YXAV16Z5IlFgOAKjE-28" value="" style="edgeStyle=orthogonalEdgeStyle;rounded=0;orthogonalLoop=1;jettySize=auto;html=1;dashed=1;targetPerimeterSpacing=20;endArrow=none;endFill=0;sourcePerimeterSpacing=6;" edge="1" parent="FI0YXAV16Z5IlFgOAKjE-15" source="FI0YXAV16Z5IlFgOAKjE-21" target="FI0YXAV16Z5IlFgOAKjE-22">
          <mxGeometry relative="1" as="geometry" />
        </mxCell>
        <mxCell id="FI0YXAV16Z5IlFgOAKjE-21" value="Instância EC2" style="verticalLabelPosition=bottom;html=1;verticalAlign=top;strokeWidth=1;align=center;outlineConnect=0;dashed=0;outlineConnect=0;shape=mxgraph.aws3d.application_server;fillColor=#ECECEC;strokeColor=#5E5E5E;aspect=fixed;strokeColor2=#292929;" vertex="1" parent="FI0YXAV16Z5IlFgOAKjE-15">
          <mxGeometry x="121.41" y="389" width="69.43" height="70" as="geometry" />
        </mxCell>
        <mxCell id="FI0YXAV16Z5IlFgOAKjE-22" value="EBS" style="verticalLabelPosition=bottom;html=1;verticalAlign=top;strokeWidth=1;align=center;outlineConnect=0;dashed=0;outlineConnect=0;shape=mxgraph.aws3d.ebs2;fillColor=#ECECEC;strokeColor=#5E5E5E;aspect=fixed;strokeColor2=#292929;" vertex="1" parent="FI0YXAV16Z5IlFgOAKjE-15">
          <mxGeometry x="110.12" y="269" width="92" height="60" as="geometry" />
        </mxCell>
        <mxCell id="FI0YXAV16Z5IlFgOAKjE-26" value="EBS" style="verticalLabelPosition=bottom;html=1;verticalAlign=top;strokeWidth=1;align=center;outlineConnect=0;dashed=0;outlineConnect=0;shape=mxgraph.aws3d.ebs2;fillColor=#ECECEC;strokeColor=#5E5E5E;aspect=fixed;strokeColor2=#292929;" vertex="1" parent="FI0YXAV16Z5IlFgOAKjE-15">
          <mxGeometry x="410.13" y="269" width="92" height="60" as="geometry" />
        </mxCell>
        <mxCell id="FI0YXAV16Z5IlFgOAKjE-27" value="Instância EC2" style="verticalLabelPosition=bottom;html=1;verticalAlign=top;strokeWidth=1;align=center;outlineConnect=0;dashed=0;outlineConnect=0;shape=mxgraph.aws3d.application_server;fillColor=#ECECEC;strokeColor=#5E5E5E;aspect=fixed;strokeColor2=#292929;" vertex="1" parent="FI0YXAV16Z5IlFgOAKjE-15">
          <mxGeometry x="421.42" y="389" width="69.43" height="70" as="geometry" />
        </mxCell>
        <mxCell id="FI0YXAV16Z5IlFgOAKjE-29" value="" style="edgeStyle=orthogonalEdgeStyle;rounded=0;orthogonalLoop=1;jettySize=auto;html=1;dashed=1;targetPerimeterSpacing=20;endArrow=none;endFill=0;sourcePerimeterSpacing=6;" edge="1" parent="FI0YXAV16Z5IlFgOAKjE-15">
          <mxGeometry relative="1" as="geometry">
            <mxPoint x="455.71" y="383" as="sourcePoint" />
            <mxPoint x="455.71" y="349" as="targetPoint" />
          </mxGeometry>
        </mxCell>
        <mxCell id="FI0YXAV16Z5IlFgOAKjE-16" value="Region B" style="points=[[0,0],[0.25,0],[0.5,0],[0.75,0],[1,0],[1,0.25],[1,0.5],[1,0.75],[1,1],[0.75,1],[0.5,1],[0.25,1],[0,1],[0,0.75],[0,0.5],[0,0.25]];outlineConnect=0;gradientColor=none;html=1;whiteSpace=wrap;fontSize=12;fontStyle=0;container=1;pointerEvents=0;collapsible=0;recursiveResize=0;shape=mxgraph.aws4.group;grIcon=mxgraph.aws4.group_region;strokeColor=#00A4A6;fillColor=none;verticalAlign=top;align=left;spacingLeft=30;fontColor=#147EBA;dashed=1;" vertex="1" parent="1">
          <mxGeometry x="670" y="50" width="450" height="540" as="geometry" />
        </mxCell>
        <mxCell id="FI0YXAV16Z5IlFgOAKjE-20" value="Availability Zone Z" style="sketch=0;outlineConnect=0;gradientColor=none;html=1;whiteSpace=wrap;fontSize=12;fontStyle=0;shape=mxgraph.aws4.group;grIcon=mxgraph.aws4.group_availability_zone;strokeColor=#545B64;fillColor=none;verticalAlign=top;align=left;spacingLeft=30;fontColor=#545B64;dashed=1;" vertex="1" parent="FI0YXAV16Z5IlFgOAKjE-16">
          <mxGeometry x="10" y="160" width="430" height="370" as="geometry" />
        </mxCell>
        <mxCell id="FI0YXAV16Z5IlFgOAKjE-39" value="EBS" style="verticalLabelPosition=bottom;html=1;verticalAlign=top;strokeWidth=1;align=center;outlineConnect=0;dashed=0;outlineConnect=0;shape=mxgraph.aws3d.ebs2;fillColor=#ECECEC;strokeColor=#5E5E5E;aspect=fixed;strokeColor2=#292929;" vertex="1" parent="FI0YXAV16Z5IlFgOAKjE-16">
          <mxGeometry x="174" y="269" width="92" height="60" as="geometry" />
        </mxCell>
        <mxCell id="FI0YXAV16Z5IlFgOAKjE-40" value="Instância EC2" style="verticalLabelPosition=bottom;html=1;verticalAlign=top;strokeWidth=1;align=center;outlineConnect=0;dashed=0;outlineConnect=0;shape=mxgraph.aws3d.application_server;fillColor=#ECECEC;strokeColor=#5E5E5E;aspect=fixed;strokeColor2=#292929;" vertex="1" parent="FI0YXAV16Z5IlFgOAKjE-16">
          <mxGeometry x="185.28999999999996" y="389" width="69.43" height="70" as="geometry" />
        </mxCell>
        <mxCell id="FI0YXAV16Z5IlFgOAKjE-41" value="" style="edgeStyle=orthogonalEdgeStyle;rounded=0;orthogonalLoop=1;jettySize=auto;html=1;dashed=1;targetPerimeterSpacing=20;endArrow=none;endFill=0;sourcePerimeterSpacing=6;" edge="1" parent="FI0YXAV16Z5IlFgOAKjE-16">
          <mxGeometry relative="1" as="geometry">
            <mxPoint x="219.57999999999993" y="383" as="sourcePoint" />
            <mxPoint x="219.57999999999993" y="349" as="targetPoint" />
          </mxGeometry>
        </mxCell>
        <mxCell id="FI0YXAV16Z5IlFgOAKjE-43" value="" style="rounded=0;whiteSpace=wrap;html=1;fillColor=#f5f5f5;fontColor=#333333;strokeColor=#666666;" vertex="1" parent="FI0YXAV16Z5IlFgOAKjE-16">
          <mxGeometry x="10" y="30" width="430" height="120" as="geometry" />
        </mxCell>
        <mxCell id="FI0YXAV16Z5IlFgOAKjE-44" value="&lt;span style=&quot;color: rgb(105, 105, 105);&quot;&gt;&lt;b&gt;Amazon S3 (Snapshots)&lt;/b&gt;&lt;/span&gt;" style="text;html=1;align=center;verticalAlign=middle;whiteSpace=wrap;rounded=0;" vertex="1" parent="FI0YXAV16Z5IlFgOAKjE-16">
          <mxGeometry x="10" y="30" width="150" height="30" as="geometry" />
        </mxCell>
        <mxCell id="FI0YXAV16Z5IlFgOAKjE-45" value="&lt;div&gt;Snapshot (Réplica)&lt;/div&gt;" style="verticalLabelPosition=bottom;html=1;verticalAlign=top;strokeWidth=1;align=center;outlineConnect=0;dashed=0;outlineConnect=0;shape=mxgraph.aws3d.snapshot;fillColor=#4286c5;strokeColor=#57A2D8;aspect=fixed;strokeColor2=#292929;" vertex="1" parent="FI0YXAV16Z5IlFgOAKjE-16">
          <mxGeometry x="179" y="60" width="92" height="60" as="geometry" />
        </mxCell>
        <mxCell id="FI0YXAV16Z5IlFgOAKjE-48" style="edgeStyle=orthogonalEdgeStyle;rounded=0;orthogonalLoop=1;jettySize=auto;html=1;startArrow=classic;startFill=1;" edge="1" parent="FI0YXAV16Z5IlFgOAKjE-16" source="FI0YXAV16Z5IlFgOAKjE-39" target="FI0YXAV16Z5IlFgOAKjE-45">
          <mxGeometry relative="1" as="geometry">
            <Array as="points">
              <mxPoint x="380" y="299" />
              <mxPoint x="380" y="90" />
            </Array>
          </mxGeometry>
        </mxCell>
        <mxCell id="FI0YXAV16Z5IlFgOAKjE-49" value="Backup/Restore" style="edgeLabel;html=1;align=center;verticalAlign=middle;resizable=0;points=[];" vertex="1" connectable="0" parent="FI0YXAV16Z5IlFgOAKjE-48">
          <mxGeometry x="-0.0964" relative="1" as="geometry">
            <mxPoint as="offset" />
          </mxGeometry>
        </mxCell>
        <mxCell id="FI0YXAV16Z5IlFgOAKjE-25" style="edgeStyle=orthogonalEdgeStyle;rounded=0;orthogonalLoop=1;jettySize=auto;html=1;strokeWidth=1;endArrow=classic;endFill=1;sourcePerimeterSpacing=0;targetPerimeterSpacing=27;" edge="1" parent="1" target="FI0YXAV16Z5IlFgOAKjE-21">
          <mxGeometry relative="1" as="geometry">
            <mxPoint x="110" y="738" as="sourcePoint" />
            <mxPoint x="180" y="550" as="targetPoint" />
          </mxGeometry>
        </mxCell>
        <mxCell id="FI0YXAV16Z5IlFgOAKjE-53" value="Envia Conteúdo" style="edgeLabel;html=1;align=center;verticalAlign=middle;resizable=0;points=[];" vertex="1" connectable="0" parent="FI0YXAV16Z5IlFgOAKjE-25">
          <mxGeometry x="-0.046" y="1" relative="1" as="geometry">
            <mxPoint as="offset" />
          </mxGeometry>
        </mxCell>
        <mxCell id="FI0YXAV16Z5IlFgOAKjE-24" value="Usuário" style="outlineConnect=0;dashed=0;verticalLabelPosition=bottom;verticalAlign=top;align=center;html=1;shape=mxgraph.aws3.user;fillColor=#D2D3D3;gradientColor=none;" vertex="1" parent="1">
          <mxGeometry x="47.75" y="690" width="50" height="70" as="geometry" />
        </mxCell>
        <mxCell id="FI0YXAV16Z5IlFgOAKjE-31" value="" style="rounded=0;whiteSpace=wrap;html=1;fillColor=#f5f5f5;fontColor=#333333;strokeColor=#666666;" vertex="1" parent="1">
          <mxGeometry x="60" y="80" width="590" height="120" as="geometry" />
        </mxCell>
        <mxCell id="FI0YXAV16Z5IlFgOAKjE-32" value="&lt;span style=&quot;color: rgb(105, 105, 105);&quot;&gt;&lt;b&gt;Amazon S3 (Snapshots)&lt;/b&gt;&lt;/span&gt;" style="text;html=1;align=center;verticalAlign=middle;whiteSpace=wrap;rounded=0;" vertex="1" parent="1">
          <mxGeometry x="60" y="80" width="150" height="30" as="geometry" />
        </mxCell>
        <mxCell id="FI0YXAV16Z5IlFgOAKjE-46" style="edgeStyle=orthogonalEdgeStyle;rounded=0;orthogonalLoop=1;jettySize=auto;html=1;strokeColor=#5996FF;" edge="1" parent="1" source="FI0YXAV16Z5IlFgOAKjE-33" target="FI0YXAV16Z5IlFgOAKjE-45">
          <mxGeometry relative="1" as="geometry">
            <Array as="points">
              <mxPoint x="740" y="150" />
              <mxPoint x="740" y="150" />
            </Array>
          </mxGeometry>
        </mxCell>
        <mxCell id="FI0YXAV16Z5IlFgOAKjE-56" value="&lt;div&gt;&lt;span style=&quot;line-height: 80%;&quot;&gt;Cross-Region&lt;/span&gt;&lt;/div&gt;&lt;div&gt;&lt;span&gt;(opcional - custo maior)&lt;/span&gt;&lt;/div&gt;" style="edgeLabel;html=1;align=center;verticalAlign=middle;resizable=0;points=[];" vertex="1" connectable="0" parent="FI0YXAV16Z5IlFgOAKjE-46">
          <mxGeometry x="-0.1238" y="-1" relative="1" as="geometry">
            <mxPoint as="offset" />
          </mxGeometry>
        </mxCell>
        <mxCell id="FI0YXAV16Z5IlFgOAKjE-33" value="&lt;div&gt;Snapshot&lt;/div&gt;" style="verticalLabelPosition=bottom;html=1;verticalAlign=top;strokeWidth=1;align=center;outlineConnect=0;dashed=0;outlineConnect=0;shape=mxgraph.aws3d.snapshot;fillColor=#4286c5;strokeColor=#57A2D8;aspect=fixed;strokeColor2=#292929;" vertex="1" parent="1">
          <mxGeometry x="307.88" y="100" width="92" height="60" as="geometry" />
        </mxCell>
        <mxCell id="FI0YXAV16Z5IlFgOAKjE-34" value="" style="edgeStyle=orthogonalEdgeStyle;rounded=0;orthogonalLoop=1;jettySize=auto;html=1;startArrow=classic;startFill=1;" edge="1" parent="1" source="FI0YXAV16Z5IlFgOAKjE-22" target="FI0YXAV16Z5IlFgOAKjE-33">
          <mxGeometry relative="1" as="geometry">
            <Array as="points">
              <mxPoint x="200" y="130" />
            </Array>
          </mxGeometry>
        </mxCell>
        <mxCell id="FI0YXAV16Z5IlFgOAKjE-37" value="Backup/Restore" style="edgeLabel;html=1;align=center;verticalAlign=middle;resizable=0;points=[];" vertex="1" connectable="0" parent="FI0YXAV16Z5IlFgOAKjE-34">
          <mxGeometry x="-0.5879" y="-3" relative="1" as="geometry">
            <mxPoint as="offset" />
          </mxGeometry>
        </mxCell>
        <mxCell id="FI0YXAV16Z5IlFgOAKjE-35" value="" style="edgeStyle=orthogonalEdgeStyle;rounded=0;orthogonalLoop=1;jettySize=auto;html=1;startArrow=classic;startFill=1;" edge="1" parent="1" source="FI0YXAV16Z5IlFgOAKjE-26" target="FI0YXAV16Z5IlFgOAKjE-33">
          <mxGeometry relative="1" as="geometry">
            <Array as="points">
              <mxPoint x="500" y="130" />
            </Array>
          </mxGeometry>
        </mxCell>
        <mxCell id="FI0YXAV16Z5IlFgOAKjE-36" value="Backup/Restore" style="edgeLabel;html=1;align=center;verticalAlign=middle;resizable=0;points=[];" vertex="1" connectable="0" parent="FI0YXAV16Z5IlFgOAKjE-35">
          <mxGeometry x="-0.6118" y="-1" relative="1" as="geometry">
            <mxPoint as="offset" />
          </mxGeometry>
        </mxCell>
      </root>
    </mxGraphModel>
  </diagram>
</mxfile>
